# xmcd CD database file
#
# Track frame offsets:
#	150
#	14634
#	34248
#	59245
#	79906
#	94226
#	113493
#	136550
#	159498
#	174537
#	191530
#	214295
#	235581
#	248010
#	274667
#
# Disc length: 3929 seconds
#
# Revision: 0
# Processed by: cddbd v1.5.2PL0 Copyright (c) Steve Scherf et al.
# Submitted via: CDex 1.70beta2
#
DISCID=cb0f570f
DTITLE=The International Hot Jazz Quartet - Havin' A Ball
DYEAR=2010
DGENRE=Jazz
TTITLE0=Havin' A Ball
TTITLE1=Sidewalk Blues
TTITLE2=Linger Awhile
TTITLE3=When Day Is Done
TTITLE4=Opus 1/2
TTITLE5=Loch Lomond
TTITLE6=Chevy Case
TTITLE7=Pee Wee's Blues
TTITLE8=Four Brothers
TTITLE9=Woke Up Clipped
TTITLE10=Dynaflow
TTITLE11=Penthouse Serenade
TTITLE12=King Porter Stomp
TTITLE13=When You Wish Upon A Star
TTITLE14=Sleep
EXTD=YEAR: 2010
EXTT0=
EXTT1=
EXTT2=
EXTT3=
EXTT4=
EXTT5=
EXTT6=
EXTT7=
EXTT8=
EXTT9=
EXTT10=
EXTT11=
EXTT12=
EXTT13=
EXTT14=
PLAYORDER=
